<svg xmlns="http://www.w3.org/2000/svg" xml:space="preserve" viewBox="0 0 400 200">
  <defs>
    <clipPath id="a" clipPathUnits="userSpaceOnUse">
      <path d="M0 612h792V0H0Z"/>
    </clipPath>
  </defs>
  <g clip-path="url(#a)" transform="matrix(1 0 0 -1 0 816)">
    <path d="M0 0c-103 18-242-90-336-87-40 1-72 31-83 56s-12 61-3 88c13 38 37 64 56 66l10-2c9-5 7-10 4-23l-2-8c-6-20-6-33 0-41 5-6 13-8 24-7 10 0 14 5 15 9s0 7-3 9c-2 1-2 4 1 18 11 45-7 56-27 64-8 4-17 5-27 4-28-2-67-22-87-72-14-32-15-78-4-109 12-34 51-82 120-84 81-3 125 35 219 67C-51-28 19-35 12-68c-1-5-5-8-3-12 1-4 6-7 12-6 7 0 30 11 30 39C51-25 34-6 0 0" style="fill:#231f20;fill-opacity:1;fill-rule:nonzero;stroke:none" transform="translate(630 287)"/>
    <path d="m0 0 2 1h2C5 0 6-1 4-9c0-2-1-3-2-3l-1 1C-1-8-1-2 0 0m-278-94-2-2-1 1c-2 3-3 9-1 12l2 2 2-1c0-1 2-2 0-12m222 60c-5-17-13-50-26-47-11 3-1 24 7 43 5 16-5 21-17 21-6 0-22-5-30-7l-5 2c-6 6-24 7-28-7-4-16 11-14 11-14 4-26-14-66-28-64-13 1-3 20 5 39 7 19-1 24-13 24-7 1-23-4-30-6h-5c-6 7-24 9-28-6-4-16 10-13 10-13s2-6-2-20c-4-10-14-12-19-13-2 0-3 2-3 4 2 7 2 22-20 28-20 3-19-21-19-21s0-13 9-20l1-2c-1-7-6-39-24-38-13 2-7 25-4 32 7 15 20 29 6 32-19 3-26-14-28-26-2-7-12-47 23-54 31-6 45 27 50 43 0 2 2 4 4 3 22-1 36 14 41 24 9 15 9 28 9 32l1 2c4 1 16 5 12-8-6-15-22-51 9-55 47-6 69 59 66 87l2 2c5 2 18 4 14-8-9-22-18-51 13-55 0 0 28-2 41 24 1 2 2 1 4 0 3-3 8-5 15-6 31-5 45 27 50 43 0 1 2 3 4 2 16-5 32 5 35 15C64-1 48 7 40-9c-4-8-10-9-13-9-2 0-3 2-3 3 2 7 3 23-20 29-20 3-20-21-19-21 0 0-1-13 10-20l2-3c-2-8-11-37-26-36-13 1-7 24-4 32 6 15 20 29 6 31-19 3-24-14-29-31" style="fill:#231f20;fill-opacity:1;fill-rule:nonzero;stroke:none" transform="translate(601 388)"/>
  </g>
</svg>